# xmcd
#
# Track frame offsets: 
#        150
#        13249
#        24714
#        36614
#        49924
#        62074
#        75314
#        90466
#        104794
#        119392
#        131896
#        145549
#        160389
#        173064
#        187214
#        201042
#        216327
#        228859
#        242847
#        255515
#        268334
#        280972
#        293730
#        306591
#        318238
#
# Disc length: 4391 seconds
#
# Revision: 0
# Processed by: cddbd v1.5.2PL0 Copyright (c) Steve Scherf et al.
# Submitted via: ExactAudioCopyFreeDBPlugin 1.0
#
DISCID=81112519
DTITLE=Lovin' Sam Theard - In Chronological Order (1929-1936)
DYEAR=1996
DGENRE=Blues
TTITLE0=She Skuffles That Ruff
TTITLE1=What You Gonna Do?
TTITLE2=She's Givin' It Away
TTITLE3=Get Your Mind on It
TTITLE4=Doodle It Back
TTITLE5=I Ain't No Ice Man
TTITLE6=Hot Dog Man
TTITLE7=I'm Goin' Back and Get Some More
TTITLE8=Huggin' and Kissin' and Gwine On
TTITLE9=Ain't Nobody Got Nothin'
TTITLE10=Get It in Front
TTITLE11=You Rascal You - No. 2
TTITLE12=Can You Imagine That?
TTITLE13=Ugly Child
TTITLE14=Three Sixes
TTITLE15=She Can Love So Good
TTITLE16=Bring It on Home to Your Grandma
TTITLE17=Try Some of That
TTITLE18=That Stuff
TTITLE19=I Done Caught That Rascal Now
TTITLE20=Rubbin' on That Darned Old Thing (Rub That Thing)
TTITLE21=That Rhythm Gal
TTITLE22=Till I Die
TTITLE23=New Rubbing on That Darned Old Thing
TTITLE24=I Wonder Who's Boogiein' My Woogie Now
EXTD=
EXTT0=
EXTT1=
EXTT2=
EXTT3=
EXTT4=
EXTT5=
EXTT6=
EXTT7=
EXTT8=
EXTT9=
EXTT10=
EXTT11=
EXTT12=
EXTT13=
EXTT14=
EXTT15=
EXTT16=
EXTT17=
EXTT18=
EXTT19=
EXTT20=
EXTT21=
EXTT22=
EXTT23=
EXTT24=
PLAYORDER=
